<?xml version="1.0"?>
<svg xmlns="http://www.w3.org/2000/svg" xmlns:xlink="http://www.w3.org/1999/xlink" xmlns:svgjs="http://svgjs.com/svgjs" version="1.1" width="512" height="512" x="0" y="0" viewBox="0 0 512 512" style="enable-background:new 0 0 512 512" xml:space="preserve" class=""><g><g xmlns="http://www.w3.org/2000/svg"><g fill="#57a4ff"><path d="m496 496h-120v-40h-64v40h-296l18.75-81.63a80.021 80.021 0 0 1 60.44-56.31l104.81-22.06-16 56 72 24 71-24-15-56 104.81 22.06a80.021 80.021 0 0 1 60.44 56.31z" fill="#1264fa" data-original="#57a4ff" style="" class=""/><path d="m360 120v96h-4a19.994 19.994 0 0 1 -20-20v-68l-80 16-80-16v68a19.994 19.994 0 0 1 -20 20h-4v-96a104 104 0 1 1 208 0z" fill="#1264fa" data-original="#57a4ff" style="" class=""/></g><g fill="#004fac"><path d="m503.8 494.21-18.75-81.63c-.03-.14-.07-.27-.11-.41a87.824 87.824 0 0 0 -66.48-61.94l-98.46-20.72v-13.65a112.136 112.136 0 0 0 46.85-75.86h5.15a28.031 28.031 0 0 0 28-28v-24a28.031 28.031 0 0 0 -28-28h-4v-40a112 112 0 0 0 -224 0v40h-4a28.031 28.031 0 0 0 -28 28v24a28.031 28.031 0 0 0 28 28h5.15a112.136 112.136 0 0 0 46.85 75.86v13.65l-98.46 20.72a87.824 87.824 0 0 0 -66.48 61.94c-.04.14-.08.27-.11.41l-18.75 81.63a8 8 0 0 0 7.8 9.79h480a8 8 0 0 0 7.8-9.79zm-135.8-318.21h4a12.01 12.01 0 0 1 12 12v24a12.01 12.01 0 0 1 -12 12h-4zm-224 48h-4a12.01 12.01 0 0 1 -12-12v-24a12.01 12.01 0 0 1 12-12h4zm16-104a96 96 0 0 1 192 0v87.31a12.014 12.014 0 0 1 -8-11.31v-68a7.992 7.992 0 0 0 -9.57-7.84l-78.43 15.68-78.43-15.68a7.992 7.992 0 0 0 -9.57 7.84v68a12.014 12.014 0 0 1 -8 11.31zm0 104v-.29a28.043 28.043 0 0 0 24-27.71v-58.24l70.43 14.08a7.9 7.9 0 0 0 3.14 0l70.43-14.08v58.24a28.043 28.043 0 0 0 24 27.71v.29a96 96 0 0 1 -192 0zm157.33 162.82-40.79 13.79 32.17-45.96zm-114.25-32.47 32.48 46.4-41.76-13.92zm44.92 133.65h-136v-24a8 8 0 0 0 -16 0v24h-69.95l16.45-71.63a71.845 71.845 0 0 1 54.34-50.48l91.82-19.33-12.35 43.24a8 8 0 0 0 5.16 9.79l66.53 22.18zm-40-154.52v-8.3a111.88 111.88 0 0 0 96 0v8.3l-48 68.57zm160 154.52h-48v-24h48zm48 0v-24a8 8 0 0 0 -16 0v24h-16v-32a8 8 0 0 0 -8-8h-64a8 8 0 0 0 -8 8v32h-40v-66.26l65.56-22.16a8 8 0 0 0 5.17-9.65l-11.63-43.42 92.06 19.38a71.845 71.845 0 0 1 54.34 50.48l16.45 71.63z" fill="#ffffff" data-original="#004fac" style="" class=""/><path d="m280 272a8 8 0 0 0 -8-8h-32a8 8 0 0 0 0 16h32a8 8 0 0 0 8-8z" fill="#ffffff" data-original="#004fac" style="" class=""/><circle cx="208" cy="192" r="16" fill="#ffffff" data-original="#004fac" style="" class=""/><circle cx="304" cy="192" r="16" fill="#ffffff" data-original="#004fac" style="" class=""/></g></g></g></svg>
